<svg width="50" height="50" viewBox="0 0 50 50" fill="none" xmlns="http://www.w3.org/2000/svg">
<path d="M25 27.5C26.4958 27.4999 27.9574 27.9471 29.1971 28.7841C30.4367 29.621 31.3978 30.8096 31.9569 32.1969C32.5159 33.5843 32.6473 35.1071 32.3343 36.5698C32.0212 38.0324 31.2779 39.368 30.2 40.405L29.0009 41.5589C27.7036 42.8073 28.5873 45 30.3877 45H30.5C31.6046 45 32.5 45.8954 32.5 47V48C32.5 49.1046 31.6046 50 30.5 50H19.5C18.3954 50 17.5 49.1046 17.5 48V46.5408C17.5 45.9972 17.7213 45.477 18.113 45.0999L26.7325 36.8025C27.0304 36.5162 27.2527 36.1604 27.3794 35.7671C27.5062 35.3739 27.5335 34.9553 27.4589 34.5489C27.3843 34.1424 27.2102 33.7608 26.952 33.4382C26.6938 33.1156 26.3597 32.862 25.9795 32.7001C25.5994 32.5382 25.185 32.473 24.7735 32.5104C24.362 32.5479 23.9662 32.6867 23.6215 32.9146C23.2767 33.1424 22.9939 33.4522 22.7982 33.8161C22.4756 34.416 21.9478 35 21.2667 35H19.5C18.3954 35 17.474 34.0891 17.7651 33.0236C18.1058 31.7764 18.7665 30.6269 19.6967 29.6967C21.1032 28.2902 23.0109 27.5 25 27.5ZM38 27.5C39.1046 27.5 40 28.3954 40 29.5V35.5C40 36.6046 40.8954 37.5 42 37.5H43C44.1046 37.5 45 36.6046 45 35.5V29.5C45 28.3954 45.8954 27.5 47 27.5H48C49.1046 27.5 50 28.3954 50 29.5V48C50 49.1046 49.1046 50 48 50H47C45.8954 50 45 49.1046 45 48V44.5C45 43.3954 44.1046 42.5 43 42.5H37C35.8954 42.5 35 41.6046 35 40.5V29.5C35 28.3954 35.8954 27.5 37 27.5H38ZM2.99795 25C4.10332 25 4.98871 25.8989 5.09826 26.9988C5.32815 29.3072 5.95921 31.5631 6.968 33.6634C8.12742 36.0773 9.7592 38.2303 11.7633 39.9966C12.2194 40.3986 12.5 40.969 12.5 41.5769V43.1921C12.5 44.7314 10.844 45.6685 9.62977 44.7224C7.09833 42.75 4.96171 40.3015 3.3466 37.5034C1.48616 34.2804 0.373356 30.6901 0.0789954 26.997C-0.00873843 25.8963 0.894869 25 1.99908 25H2.99795ZM25 1.08512e-05C37.2048 1.08512e-05 47.3684 8.74761 49.5603 20.3145C49.7805 21.4764 48.8495 22.5 47.6669 22.5H46.6086C45.6008 22.5 44.7612 21.7471 44.5475 20.7622C43.8511 17.5515 42.3721 14.5523 40.2308 12.0369C37.7073 9.07252 34.3737 6.90895 30.6385 5.81148C26.9034 4.71401 22.9293 4.73034 19.2033 5.85847C16.0631 6.80924 13.2143 8.51486 10.9002 10.8145C10.1652 11.5449 10.2243 12.7243 10.9569 13.4569L11.5858 14.0858C12.8457 15.3457 11.9534 17.5 10.1716 17.5H2C0.895433 17.5 2.68471e-06 16.6046 2.68471e-06 15.5V7.32704C2.68471e-06 5.54543 2.15388 4.65301 3.41393 5.91254L4.59823 7.09635C5.41917 7.91696 6.75946 7.86255 7.59205 7.05376C9.63861 5.0657 12.015 3.4396 14.6204 2.25089C17.8786 0.764355 21.4187 -0.00332903 25 1.08512e-05Z" fill="#B0976D"/>
</svg>
