<svg width="59" height="50" viewBox="0 0 59 50" fill="none" xmlns="http://www.w3.org/2000/svg">
<path d="M58.0076 43.5431C56.874 42.4056 43.1364 36.9902 40.6436 35.9687C38.1639 34.965 37.1747 32.1838 37.1747 32.1838C37.1747 32.1838 36.0585 32.8127 36.0585 31.0463C36.0585 29.2776 37.1747 32.1838 38.2909 25.3633C38.2909 25.3633 41.3877 24.4778 40.7727 17.1555H40.0286C40.0286 17.1555 41.8889 9.32687 40.0286 6.67719C38.1618 4.0275 37.4308 2.26105 33.3316 0.994193C29.239 -0.27043 30.7272 -0.0183975 27.7551 0.110964C24.7787 0.238096 22.3012 1.87965 22.3012 2.76065C22.3012 2.76065 20.441 2.88778 19.7012 3.64611C18.9571 4.40444 17.7184 7.93735 17.7184 8.82058C17.7184 9.70381 18.3378 15.6455 18.9571 16.9035L18.2196 17.1488C17.6002 24.4734 20.697 25.361 20.697 25.361C21.8132 32.1815 22.9294 29.2754 22.9294 31.044C22.9294 32.8105 21.8132 32.1815 21.8132 32.1815C21.8132 32.1815 20.8218 34.9606 18.3443 35.9665C15.8669 36.9768 2.11394 42.4056 0.995583 43.5408C0.327623 44.2349 0.104074 46.4115 0.0322456 48.0476C-0.0153955 49.1328 0.871406 50 1.95764 50H57.046C58.1303 50 59.0163 49.1358 58.9707 48.0524C58.9017 46.4145 58.6799 44.2322 58.0033 43.5386L58.0076 43.5431ZM31.9528 20.9717C31.0818 20.4141 30.2392 18.2729 30.2392 17.3139V16.7875C30.0094 16.5511 28.9829 16.5734 28.7728 16.7875V17.3139C28.7728 18.2729 27.9302 20.4141 27.0592 20.9717C26.1838 21.5293 23.5356 21.5003 22.4982 20.4453C21.463 19.3903 21.3514 16.7362 21.091 16.4752C20.8327 16.2076 20.6861 16.0626 20.6861 16.0626L20.7517 15.1392C20.7517 15.1392 22.5901 14.6775 24.4679 14.6775C26.3457 14.6775 28.4139 15.7994 28.4139 15.7994C28.9216 15.6344 30.1319 15.6143 30.5959 15.7994C30.5959 15.7994 32.6641 14.6798 34.5419 14.6798C36.4197 14.6798 38.2624 15.1437 38.2624 15.1437L38.3237 16.0671L37.9188 16.4797C37.6606 16.7429 37.5468 19.397 36.5116 20.4498C35.483 21.5047 32.8304 21.5359 31.955 20.9761L31.9528 20.9717Z" fill="#B0976D"/>
</svg>
