<svg width="67" height="50" viewBox="0 0 67 50" fill="none" xmlns="http://www.w3.org/2000/svg">
<path fill-rule="evenodd" clip-rule="evenodd" d="M4.16667 50C4.16667 50 0 50 0 45.8333C0 41.6667 4.16667 29.1667 25 29.1667C45.8333 29.1667 50 41.6667 50 45.8333C50 50 45.8333 50 45.8333 50H4.16667ZM25 25C28.3152 25 31.4946 23.683 33.8388 21.3388C36.183 18.9946 37.5 15.8152 37.5 12.5C37.5 9.18479 36.183 6.00537 33.8388 3.66117C31.4946 1.31696 28.3152 0 25 0C21.6848 0 18.5054 1.31696 16.1612 3.66117C13.817 6.00537 12.5 9.18479 12.5 12.5C12.5 15.8152 13.817 18.9946 16.1612 21.3388C18.5054 23.683 21.6848 25 25 25ZM66.0583 13.1083C66.2523 13.3019 66.4063 13.5318 66.5113 13.7849C66.6163 14.038 66.6704 14.3093 66.6704 14.5833C66.6704 14.8574 66.6163 15.1287 66.5113 15.3818C66.4063 15.6349 66.2523 15.8648 66.0583 16.0583L53.5583 28.5583C53.3648 28.7523 53.1349 28.9063 52.8818 29.0113C52.6287 29.1163 52.3574 29.1704 52.0833 29.1704C51.8093 29.1704 51.538 29.1163 51.2849 29.0113C51.0318 28.9063 50.8019 28.7523 50.6083 28.5583L44.3583 22.3083C43.9671 21.9171 43.7474 21.3866 43.7474 20.8333C43.7474 20.2801 43.9671 19.7495 44.3583 19.3583C44.7495 18.9671 45.2801 18.7474 45.8333 18.7474C46.3866 18.7474 46.9171 18.9671 47.3083 19.3583L52.0833 24.1375L63.1083 13.1083C63.3019 12.9143 63.5318 12.7604 63.7849 12.6554C64.038 12.5503 64.3093 12.4963 64.5833 12.4963C64.8574 12.4963 65.1287 12.5503 65.3818 12.6554C65.6349 12.7604 65.8648 12.9143 66.0583 13.1083Z" fill="#B0976D"/>
</svg>
