<svg width="30" height="30" viewBox="0 0 30 30" fill="none" xmlns="http://www.w3.org/2000/svg">
<path d="M26.25 24.375H23.4375C23.1836 24.375 22.9639 24.2822 22.7783 24.0967C22.5928 23.9111 22.5 23.6914 22.5 23.4375V14.0625C22.5 13.8086 22.5928 13.5889 22.7783 13.4033C22.9639 13.2178 23.1836 13.125 23.4375 13.125H24.375C24.375 10.2344 23.5693 7.94922 21.958 6.26953C20.3467 4.58984 18.0273 3.75 15 3.75C11.9727 3.75 9.65332 4.58984 8.04199 6.26953C6.43066 7.94922 5.625 10.2344 5.625 13.125H6.5625C6.81641 13.125 7.03613 13.2178 7.22168 13.4033C7.40723 13.5889 7.5 13.8086 7.5 14.0625V23.4375C7.5 23.6914 7.40723 23.9111 7.22168 24.0967C7.03613 24.2822 6.81641 24.375 6.5625 24.375H5.625C5.625 25.4102 5.99121 26.2939 6.72363 27.0264C7.45605 27.7588 8.33984 28.125 9.375 28.125H11.25C11.25 27.5977 11.4307 27.1533 11.792 26.792C12.1533 26.4307 12.5977 26.25 13.125 26.25H15C15.5273 26.25 15.9717 26.4307 16.333 26.792C16.6943 27.1533 16.875 27.5928 16.875 28.1104C16.875 28.6279 16.6943 29.0723 16.333 29.4434C15.9717 29.8145 15.5273 30 15 30H9.375C7.8125 30 6.48438 29.4531 5.39062 28.3594C4.29688 27.2656 3.75 25.9375 3.75 24.375C2.71484 24.375 1.83105 23.8281 1.09863 22.7344C0.366211 21.6406 0 20.3125 0 18.75C0 17.7344 0.170898 16.7969 0.512695 15.9375C0.854492 15.0781 1.30859 14.4043 1.875 13.916V13.125C1.875 11.3477 2.22168 9.64844 2.91504 8.02734C3.6084 6.40625 4.54102 5.00977 5.71289 3.83789C6.88477 2.66602 8.28125 1.7334 9.90234 1.04004C11.5234 0.34668 13.2227 0 15 0C16.7773 0 18.4766 0.34668 20.0977 1.04004C21.7188 1.7334 23.1152 2.66602 24.2871 3.83789C25.459 5.00977 26.3916 6.40625 27.085 8.02734C27.7783 9.64844 28.125 11.3477 28.125 13.125V13.916C28.6914 14.4043 29.1455 15.0781 29.4873 15.9375C29.8291 16.7969 30 17.7344 30 18.75C30 20.3125 29.6338 21.6406 28.9014 22.7344C28.1689 23.8281 27.2852 24.375 26.25 24.375Z" fill="white"/>
</svg>
