<svg width="70" height="66" viewBox="0 0 70 66" fill="none" xmlns="http://www.w3.org/2000/svg">
<path d="M30.4539 56.135L26.4384 61.094L22.0552 57.5448C20.0086 58.3508 17.5959 58.0392 15.7634 56.5554C13.9309 55.0716 13.1244 52.7764 13.4871 50.6069L9.10397 47.0577L13.1195 42.0987L17.5026 45.6479C18.5259 45.2449 19.6918 45.1216 20.776 45.3016L23.3259 42.1526L20.8495 40.1474C19.4875 39.0446 19.2767 37.0264 20.381 35.6627L26.4042 28.2241L18.9752 22.2086L10.9442 32.1267C9.83989 33.4904 7.82204 33.7038 6.46005 32.601L1.50736 28.5906C0.145374 27.4878 -0.0654872 25.4696 1.03878 24.1059L19.1086 1.79019C20.2129 0.426454 22.2308 0.213004 23.5928 1.31586L28.5454 5.32624C29.9074 6.42909 30.1183 8.44721 29.014 9.81095L22.9907 17.2495L30.4198 23.2651L36.4431 15.8265C37.5473 14.4628 39.5652 14.2493 40.9272 15.3522L43.4035 17.3574L45.4113 14.8778L42.9349 12.8727C41.5729 11.7698 41.3621 9.75168 42.4663 8.38794L44.4741 5.90842C45.5784 4.54468 47.5962 4.33123 48.9582 5.43409L58.8636 13.4548C60.2256 14.5577 60.4364 16.5758 59.3322 17.9396L57.3244 20.4191C56.2201 21.7828 54.2023 21.9963 52.8403 20.8934L50.364 18.8882L48.3562 21.3677L50.8325 23.3729C52.1945 24.4758 52.4054 26.4939 51.3011 27.8576L45.2778 35.2962L52.7069 41.3118L58.7301 33.8732C59.8344 32.5095 61.8523 32.296 63.2143 33.3989L68.1669 37.4093C69.5289 38.5121 69.7398 40.5302 68.6355 41.894L50.5657 64.2097C49.4614 65.5734 47.4435 65.7869 46.0815 64.684L41.1289 60.6736C39.7669 59.5708 39.556 57.5527 40.6603 56.1889L48.6913 46.2708L41.2623 40.2553L35.239 47.6938C34.1347 49.0576 32.1169 49.271 30.7549 48.1682L28.2786 46.163L25.7287 49.312C26.1303 50.335 26.2521 51.5011 26.0708 52.5858L30.4539 56.135ZM5.52289 23.6316L3.51513 26.1111L8.46782 30.1215L10.4756 27.6419L5.52289 23.6316ZM9.53841 18.6725L7.53065 21.152L12.4833 25.1624L14.4911 22.6829L9.53841 18.6725ZM13.5539 13.7135L11.5462 16.193L16.4989 20.2034L18.5066 17.7238L13.5539 13.7135ZM17.5695 8.75443L15.5617 11.2339L20.5144 15.2443L22.5222 12.7648L17.5695 8.75443ZM21.585 3.79538L19.5772 6.2749L24.5299 10.2853L26.5377 7.80576L21.585 3.79538ZM45.1444 55.7146L43.1366 58.1941L48.0893 62.2045L50.0971 59.725L45.1444 55.7146ZM49.1599 50.7555L47.1522 53.2351L52.1048 57.2454L54.1126 54.7659L49.1599 50.7555ZM53.1754 45.7965L51.1677 48.276L56.1204 52.2864L58.1281 49.8069L53.1754 45.7965ZM57.191 40.8374L55.1832 43.317L60.1359 47.3273L62.1437 44.8478L57.191 40.8374ZM61.2065 35.8784L59.1987 38.3579L64.1514 42.3683L66.1592 39.8888L61.2065 35.8784Z" fill="#B0976D"/>
</svg>
